<mxfile host="app.diagrams.net" agent="Mozilla/5.0 (X11; Linux x86_64; rv:138.0) Gecko/20100101 Firefox/138.0" version="27.0.5">
  <diagram name="Page-1" id="ngNzPQzKKI-gkR1TF8xa">
    <mxGraphModel dx="982" dy="543" grid="1" gridSize="10" guides="1" tooltips="1" connect="1" arrows="1" fold="1" page="1" pageScale="1" pageWidth="550" pageHeight="170" math="0" shadow="0">
      <root>
        <mxCell id="0" />
        <mxCell id="1" parent="0" />
        <mxCell id="2INRg8MjuntT7xOlTWfu-12" value="&amp;nbsp;EBO" style="rounded=0;whiteSpace=wrap;html=1;labelPosition=right;verticalLabelPosition=middle;align=left;verticalAlign=middle;fontFamily=CMU Serif;fontSource=https%3A%2F%2Ffonts.googleapis.com%2Fcss%3Ffamily%3DCMU%2BSerif;" parent="1" vertex="1">
          <mxGeometry x="220" y="275" width="130" height="45" as="geometry" />
        </mxCell>
        <mxCell id="m3EkFCFLTaFJz2Bdx3F5-1" value="&amp;nbsp;VBO (t)" style="rounded=0;whiteSpace=wrap;html=1;labelPosition=right;verticalLabelPosition=middle;align=left;verticalAlign=middle;fontFamily=CMU Serif;fontSource=https%3A%2F%2Ffonts.googleapis.com%2Fcss%3Ffamily%3DCMU%2BSerif;" vertex="1" parent="1">
          <mxGeometry x="220" y="110" width="250" height="45" as="geometry" />
        </mxCell>
        <mxCell id="m3EkFCFLTaFJz2Bdx3F5-35" style="edgeStyle=orthogonalEdgeStyle;rounded=0;orthogonalLoop=1;jettySize=auto;html=1;exitX=0.5;exitY=0;exitDx=0;exitDy=0;entryX=0.5;entryY=1;entryDx=0;entryDy=0;strokeColor=#00FF00;" edge="1" parent="1" source="2INRg8MjuntT7xOlTWfu-17" target="m3EkFCFLTaFJz2Bdx3F5-4">
          <mxGeometry relative="1" as="geometry" />
        </mxCell>
        <mxCell id="m3EkFCFLTaFJz2Bdx3F5-19" value="&amp;nbsp;VBO (n)" style="rounded=0;whiteSpace=wrap;html=1;labelPosition=right;verticalLabelPosition=middle;align=left;verticalAlign=middle;fontFamily=CMU Serif;fontSource=https%3A%2F%2Ffonts.googleapis.com%2Fcss%3Ffamily%3DCMU%2BSerif;" vertex="1" parent="1">
          <mxGeometry x="220" y="181" width="250" height="45" as="geometry" />
        </mxCell>
        <mxCell id="2INRg8MjuntT7xOlTWfu-1" value="&lt;div&gt;VAO&lt;/div&gt;" style="rounded=0;whiteSpace=wrap;html=1;fontFamily=CMU Serif;fontSource=https%3A%2F%2Ffonts.googleapis.com%2Fcss%3Ffamily%3DCMU%2BSerif;labelPosition=center;verticalLabelPosition=top;align=center;verticalAlign=bottom;" parent="1" vertex="1">
          <mxGeometry x="40" y="40" width="140" height="280" as="geometry" />
        </mxCell>
        <mxCell id="2INRg8MjuntT7xOlTWfu-2" value="&amp;nbsp;VBO (p)" style="rounded=0;whiteSpace=wrap;html=1;labelPosition=right;verticalLabelPosition=middle;align=left;verticalAlign=middle;fontFamily=CMU Serif;fontSource=https%3A%2F%2Ffonts.googleapis.com%2Fcss%3Ffamily%3DCMU%2BSerif;" parent="1" vertex="1">
          <mxGeometry x="220" y="40" width="250" height="45" as="geometry" />
        </mxCell>
        <mxCell id="2INRg8MjuntT7xOlTWfu-3" value="&lt;font data-font-src=&quot;https://fonts.googleapis.com/css?family=CMU+Serif&quot; face=&quot;CMU Serif&quot;&gt;p&lt;sub&gt;x&lt;/sub&gt;&lt;/font&gt;" style="rounded=0;whiteSpace=wrap;html=1;" parent="1" vertex="1">
          <mxGeometry x="230" y="47.5" width="30" height="30" as="geometry" />
        </mxCell>
        <mxCell id="2INRg8MjuntT7xOlTWfu-4" value="&lt;font data-font-src=&quot;https://fonts.googleapis.com/css?family=CMU+Serif&quot; face=&quot;CMU Serif&quot;&gt;p&lt;sub&gt;y&lt;/sub&gt;&lt;/font&gt;" style="rounded=0;whiteSpace=wrap;html=1;" parent="1" vertex="1">
          <mxGeometry x="260" y="47.5" width="30" height="30" as="geometry" />
        </mxCell>
        <mxCell id="2INRg8MjuntT7xOlTWfu-5" value="&lt;font data-font-src=&quot;https://fonts.googleapis.com/css?family=CMU+Serif&quot; face=&quot;CMU Serif&quot;&gt;p&lt;sub&gt;z&lt;/sub&gt;&lt;/font&gt;" style="rounded=0;whiteSpace=wrap;html=1;" parent="1" vertex="1">
          <mxGeometry x="290" y="47.5" width="30" height="30" as="geometry" />
        </mxCell>
        <mxCell id="2INRg8MjuntT7xOlTWfu-7" value="&lt;font data-font-src=&quot;https://fonts.googleapis.com/css?family=CMU+Serif&quot; face=&quot;CMU Serif&quot;&gt;p&lt;sub&gt;w&lt;/sub&gt;&lt;/font&gt;" style="rounded=0;whiteSpace=wrap;html=1;" parent="1" vertex="1">
          <mxGeometry x="320" y="47.5" width="30" height="30" as="geometry" />
        </mxCell>
        <mxCell id="2INRg8MjuntT7xOlTWfu-8" value="&lt;font face=&quot;CMU Serif&quot;&gt;q&lt;sub&gt;x&lt;/sub&gt;&lt;/font&gt;" style="rounded=0;whiteSpace=wrap;html=1;" parent="1" vertex="1">
          <mxGeometry x="350" y="47.5" width="30" height="30" as="geometry" />
        </mxCell>
        <mxCell id="2INRg8MjuntT7xOlTWfu-9" value="&lt;font face=&quot;CMU Serif&quot;&gt;q&lt;sub&gt;y&lt;/sub&gt;&lt;/font&gt;" style="rounded=0;whiteSpace=wrap;html=1;" parent="1" vertex="1">
          <mxGeometry x="380" y="47.5" width="30" height="30" as="geometry" />
        </mxCell>
        <mxCell id="2INRg8MjuntT7xOlTWfu-10" value="&lt;font data-font-src=&quot;https://fonts.googleapis.com/css?family=CMU+Serif&quot; face=&quot;CMU Serif&quot;&gt;...&lt;/font&gt;" style="text;html=1;align=center;verticalAlign=middle;resizable=0;points=[];autosize=1;strokeColor=none;fillColor=none;" parent="1" vertex="1">
          <mxGeometry x="440" y="47.5" width="30" height="30" as="geometry" />
        </mxCell>
        <mxCell id="2INRg8MjuntT7xOlTWfu-11" value="&lt;font face=&quot;CMU Serif&quot;&gt;q&lt;sub&gt;z&lt;/sub&gt;&lt;/font&gt;" style="rounded=0;whiteSpace=wrap;html=1;" parent="1" vertex="1">
          <mxGeometry x="410" y="47.5" width="30" height="30" as="geometry" />
        </mxCell>
        <mxCell id="2INRg8MjuntT7xOlTWfu-20" style="edgeStyle=orthogonalEdgeStyle;rounded=0;orthogonalLoop=1;jettySize=auto;html=1;exitX=0.25;exitY=0;exitDx=0;exitDy=0;entryX=0.5;entryY=1;entryDx=0;entryDy=0;fillColor=#f8cecc;strokeColor=#FF0000;" parent="1" source="2INRg8MjuntT7xOlTWfu-17" target="2INRg8MjuntT7xOlTWfu-8" edge="1">
          <mxGeometry relative="1" as="geometry">
            <mxPoint x="390" y="281" as="sourcePoint" />
            <mxPoint x="360" y="76" as="targetPoint" />
            <Array as="points">
              <mxPoint x="268" y="170" />
              <mxPoint x="365" y="170" />
            </Array>
          </mxGeometry>
        </mxCell>
        <mxCell id="2INRg8MjuntT7xOlTWfu-16" value="&lt;font data-font-src=&quot;https://fonts.googleapis.com/css?family=CMU+Serif&quot; face=&quot;CMU Serif&quot;&gt;i&lt;sub&gt;0&lt;/sub&gt;&lt;/font&gt;" style="rounded=0;whiteSpace=wrap;html=1;" parent="1" vertex="1">
          <mxGeometry x="230" y="282.5" width="30" height="30" as="geometry" />
        </mxCell>
        <mxCell id="m3EkFCFLTaFJz2Bdx3F5-37" style="edgeStyle=orthogonalEdgeStyle;rounded=0;orthogonalLoop=1;jettySize=auto;html=1;exitX=0.75;exitY=0;exitDx=0;exitDy=0;entryX=0.5;entryY=1;entryDx=0;entryDy=0;strokeColor=#0000FF;" edge="1" parent="1" source="2INRg8MjuntT7xOlTWfu-17" target="m3EkFCFLTaFJz2Bdx3F5-21">
          <mxGeometry relative="1" as="geometry" />
        </mxCell>
        <mxCell id="2INRg8MjuntT7xOlTWfu-17" value="&lt;font data-font-src=&quot;https://fonts.googleapis.com/css?family=CMU+Serif&quot; face=&quot;CMU Serif&quot;&gt;i&lt;sub&gt;1&lt;/sub&gt;&lt;/font&gt;" style="rounded=0;whiteSpace=wrap;html=1;" parent="1" vertex="1">
          <mxGeometry x="260" y="282.5" width="30" height="30" as="geometry" />
        </mxCell>
        <mxCell id="2INRg8MjuntT7xOlTWfu-18" value="&lt;font data-font-src=&quot;https://fonts.googleapis.com/css?family=CMU+Serif&quot; face=&quot;CMU Serif&quot;&gt;i&lt;sub&gt;2&lt;/sub&gt;&lt;/font&gt;" style="rounded=0;whiteSpace=wrap;html=1;" parent="1" vertex="1">
          <mxGeometry x="290" y="282.5" width="30" height="30" as="geometry" />
        </mxCell>
        <mxCell id="2INRg8MjuntT7xOlTWfu-19" value="&lt;font data-font-src=&quot;https://fonts.googleapis.com/css?family=CMU+Serif&quot; face=&quot;CMU Serif&quot;&gt;...&lt;/font&gt;" style="text;html=1;align=center;verticalAlign=middle;resizable=0;points=[];autosize=1;strokeColor=none;fillColor=none;" parent="1" vertex="1">
          <mxGeometry x="320" y="282.5" width="30" height="30" as="geometry" />
        </mxCell>
        <mxCell id="2INRg8MjuntT7xOlTWfu-30" style="edgeStyle=orthogonalEdgeStyle;rounded=0;orthogonalLoop=1;jettySize=auto;html=1;exitX=1;exitY=0.5;exitDx=0;exitDy=0;entryX=0;entryY=0.5;entryDx=0;entryDy=0;" parent="1" source="2INRg8MjuntT7xOlTWfu-26" target="2INRg8MjuntT7xOlTWfu-2" edge="1">
          <mxGeometry relative="1" as="geometry" />
        </mxCell>
        <mxCell id="2INRg8MjuntT7xOlTWfu-26" value="&lt;font data-font-src=&quot;https://fonts.googleapis.com/css?family=CMU+Serif&quot; face=&quot;CMU Serif&quot;&gt;Attribute Pointer 0&lt;/font&gt;" style="rounded=0;whiteSpace=wrap;html=1;" parent="1" vertex="1">
          <mxGeometry x="50" y="46.5" width="120" height="32.5" as="geometry" />
        </mxCell>
        <mxCell id="2INRg8MjuntT7xOlTWfu-29" style="edgeStyle=orthogonalEdgeStyle;rounded=0;orthogonalLoop=1;jettySize=auto;html=1;exitX=1;exitY=0.5;exitDx=0;exitDy=0;entryX=0;entryY=0.5;entryDx=0;entryDy=0;" parent="1" source="2INRg8MjuntT7xOlTWfu-27" target="2INRg8MjuntT7xOlTWfu-12" edge="1">
          <mxGeometry relative="1" as="geometry" />
        </mxCell>
        <mxCell id="2INRg8MjuntT7xOlTWfu-27" value="&lt;font data-font-src=&quot;https://fonts.googleapis.com/css?family=CMU+Serif&quot; face=&quot;CMU Serif&quot;&gt;EBO&lt;/font&gt;" style="rounded=0;whiteSpace=wrap;html=1;" parent="1" vertex="1">
          <mxGeometry x="50" y="281" width="120" height="32.5" as="geometry" />
        </mxCell>
        <mxCell id="m3EkFCFLTaFJz2Bdx3F5-2" value="&lt;font data-font-src=&quot;https://fonts.googleapis.com/css?family=CMU+Serif&quot; face=&quot;CMU Serif&quot;&gt;t&lt;sub&gt;s&lt;/sub&gt;&lt;/font&gt;" style="rounded=0;whiteSpace=wrap;html=1;" vertex="1" parent="1">
          <mxGeometry x="230" y="117.5" width="30" height="30" as="geometry" />
        </mxCell>
        <mxCell id="m3EkFCFLTaFJz2Bdx3F5-3" value="&lt;font data-font-src=&quot;https://fonts.googleapis.com/css?family=CMU+Serif&quot; face=&quot;CMU Serif&quot;&gt;t&lt;sub&gt;t&lt;/sub&gt;&lt;/font&gt;" style="rounded=0;whiteSpace=wrap;html=1;" vertex="1" parent="1">
          <mxGeometry x="260" y="117.5" width="30" height="30" as="geometry" />
        </mxCell>
        <mxCell id="m3EkFCFLTaFJz2Bdx3F5-4" value="&lt;font data-font-src=&quot;https://fonts.googleapis.com/css?family=CMU+Serif&quot; face=&quot;CMU Serif&quot;&gt;u&lt;sub&gt;s&lt;/sub&gt;&lt;/font&gt;" style="rounded=0;whiteSpace=wrap;html=1;" vertex="1" parent="1">
          <mxGeometry x="290" y="117.5" width="30" height="30" as="geometry" />
        </mxCell>
        <mxCell id="m3EkFCFLTaFJz2Bdx3F5-5" value="&lt;font data-font-src=&quot;https://fonts.googleapis.com/css?family=CMU+Serif&quot; face=&quot;CMU Serif&quot;&gt;u&lt;sub&gt;t&lt;/sub&gt;&lt;/font&gt;" style="rounded=0;whiteSpace=wrap;html=1;" vertex="1" parent="1">
          <mxGeometry x="320" y="117.5" width="30" height="30" as="geometry" />
        </mxCell>
        <mxCell id="m3EkFCFLTaFJz2Bdx3F5-6" value="&lt;font face=&quot;CMU Serif&quot;&gt;v&lt;sub&gt;s&lt;/sub&gt;&lt;/font&gt;" style="rounded=0;whiteSpace=wrap;html=1;" vertex="1" parent="1">
          <mxGeometry x="350" y="117.5" width="30" height="30" as="geometry" />
        </mxCell>
        <mxCell id="m3EkFCFLTaFJz2Bdx3F5-7" value="&lt;font face=&quot;CMU Serif&quot;&gt;v&lt;sub&gt;t&lt;/sub&gt;&lt;/font&gt;" style="rounded=0;whiteSpace=wrap;html=1;" vertex="1" parent="1">
          <mxGeometry x="380" y="117.5" width="30" height="30" as="geometry" />
        </mxCell>
        <mxCell id="m3EkFCFLTaFJz2Bdx3F5-8" value="&lt;font data-font-src=&quot;https://fonts.googleapis.com/css?family=CMU+Serif&quot; face=&quot;CMU Serif&quot;&gt;...&lt;/font&gt;" style="text;html=1;align=center;verticalAlign=middle;resizable=0;points=[];autosize=1;strokeColor=none;fillColor=none;" vertex="1" parent="1">
          <mxGeometry x="440" y="117.5" width="30" height="30" as="geometry" />
        </mxCell>
        <mxCell id="m3EkFCFLTaFJz2Bdx3F5-9" value="&lt;font face=&quot;CMU Serif&quot;&gt;w&lt;sub&gt;s&lt;/sub&gt;&lt;/font&gt;" style="rounded=0;whiteSpace=wrap;html=1;" vertex="1" parent="1">
          <mxGeometry x="410" y="117.5" width="30" height="30" as="geometry" />
        </mxCell>
        <mxCell id="m3EkFCFLTaFJz2Bdx3F5-20" value="&lt;font data-font-src=&quot;https://fonts.googleapis.com/css?family=CMU+Serif&quot; face=&quot;CMU Serif&quot;&gt;m&lt;sub&gt;w&lt;/sub&gt;&lt;/font&gt;" style="rounded=0;whiteSpace=wrap;html=1;" vertex="1" parent="1">
          <mxGeometry x="320" y="188.5" width="30" height="30" as="geometry" />
        </mxCell>
        <mxCell id="m3EkFCFLTaFJz2Bdx3F5-21" value="&lt;font data-font-src=&quot;https://fonts.googleapis.com/css?family=CMU+Serif&quot; face=&quot;CMU Serif&quot;&gt;n&lt;sub&gt;x&lt;/sub&gt;&lt;/font&gt;" style="rounded=0;whiteSpace=wrap;html=1;" vertex="1" parent="1">
          <mxGeometry x="350" y="188.5" width="30" height="30" as="geometry" />
        </mxCell>
        <mxCell id="m3EkFCFLTaFJz2Bdx3F5-22" value="&lt;font data-font-src=&quot;https://fonts.googleapis.com/css?family=CMU+Serif&quot; face=&quot;CMU Serif&quot;&gt;n&lt;sub&gt;y&lt;/sub&gt;&lt;/font&gt;" style="rounded=0;whiteSpace=wrap;html=1;" vertex="1" parent="1">
          <mxGeometry x="380" y="188.5" width="30" height="30" as="geometry" />
        </mxCell>
        <mxCell id="m3EkFCFLTaFJz2Bdx3F5-23" value="&lt;font data-font-src=&quot;https://fonts.googleapis.com/css?family=CMU+Serif&quot; face=&quot;CMU Serif&quot;&gt;m&lt;sub&gt;x&lt;/sub&gt;&lt;/font&gt;" style="rounded=0;whiteSpace=wrap;html=1;" vertex="1" parent="1">
          <mxGeometry x="230" y="188.5" width="30" height="30" as="geometry" />
        </mxCell>
        <mxCell id="m3EkFCFLTaFJz2Bdx3F5-24" value="&lt;font face=&quot;CMU Serif&quot;&gt;m&lt;sub&gt;y&lt;/sub&gt;&lt;/font&gt;" style="rounded=0;whiteSpace=wrap;html=1;" vertex="1" parent="1">
          <mxGeometry x="260" y="188.5" width="30" height="30" as="geometry" />
        </mxCell>
        <mxCell id="m3EkFCFLTaFJz2Bdx3F5-25" value="&lt;font face=&quot;CMU Serif&quot;&gt;m&lt;sub&gt;z&lt;/sub&gt;&lt;/font&gt;" style="rounded=0;whiteSpace=wrap;html=1;" vertex="1" parent="1">
          <mxGeometry x="290" y="188.5" width="30" height="30" as="geometry" />
        </mxCell>
        <mxCell id="m3EkFCFLTaFJz2Bdx3F5-26" value="&lt;font data-font-src=&quot;https://fonts.googleapis.com/css?family=CMU+Serif&quot; face=&quot;CMU Serif&quot;&gt;...&lt;/font&gt;" style="text;html=1;align=center;verticalAlign=middle;resizable=0;points=[];autosize=1;strokeColor=none;fillColor=none;" vertex="1" parent="1">
          <mxGeometry x="440" y="188.5" width="30" height="30" as="geometry" />
        </mxCell>
        <mxCell id="m3EkFCFLTaFJz2Bdx3F5-27" value="&lt;font face=&quot;CMU Serif&quot;&gt;n&lt;sub&gt;z&lt;/sub&gt;&lt;/font&gt;" style="rounded=0;whiteSpace=wrap;html=1;" vertex="1" parent="1">
          <mxGeometry x="410" y="188.5" width="30" height="30" as="geometry" />
        </mxCell>
        <mxCell id="m3EkFCFLTaFJz2Bdx3F5-28" style="edgeStyle=orthogonalEdgeStyle;rounded=0;orthogonalLoop=1;jettySize=auto;html=1;exitX=1;exitY=0.5;exitDx=0;exitDy=0;entryX=0;entryY=0.5;entryDx=0;entryDy=0;" edge="1" source="m3EkFCFLTaFJz2Bdx3F5-29" parent="1">
          <mxGeometry relative="1" as="geometry">
            <mxPoint x="220" y="132.75" as="targetPoint" />
          </mxGeometry>
        </mxCell>
        <mxCell id="m3EkFCFLTaFJz2Bdx3F5-29" value="&lt;font data-font-src=&quot;https://fonts.googleapis.com/css?family=CMU+Serif&quot; face=&quot;CMU Serif&quot;&gt;Attribute Pointer 1&lt;/font&gt;" style="rounded=0;whiteSpace=wrap;html=1;" vertex="1" parent="1">
          <mxGeometry x="50" y="116.25" width="120" height="32.5" as="geometry" />
        </mxCell>
        <mxCell id="m3EkFCFLTaFJz2Bdx3F5-32" style="edgeStyle=orthogonalEdgeStyle;rounded=0;orthogonalLoop=1;jettySize=auto;html=1;exitX=1;exitY=0.5;exitDx=0;exitDy=0;entryX=0;entryY=0.5;entryDx=0;entryDy=0;" edge="1" source="m3EkFCFLTaFJz2Bdx3F5-33" parent="1">
          <mxGeometry relative="1" as="geometry">
            <mxPoint x="220" y="203.75" as="targetPoint" />
          </mxGeometry>
        </mxCell>
        <mxCell id="m3EkFCFLTaFJz2Bdx3F5-33" value="&lt;font data-font-src=&quot;https://fonts.googleapis.com/css?family=CMU+Serif&quot; face=&quot;CMU Serif&quot;&gt;Attribute Pointer 2&lt;/font&gt;" style="rounded=0;whiteSpace=wrap;html=1;" vertex="1" parent="1">
          <mxGeometry x="50" y="187.25" width="120" height="32.5" as="geometry" />
        </mxCell>
      </root>
    </mxGraphModel>
  </diagram>
</mxfile>
